<?xml version="1.0"?>
<svg xmlns="http://www.w3.org/2000/svg" xmlns:xlink="http://www.w3.org/1999/xlink" xmlns:svgjs="http://svgjs.com/svgjs" version="1.1" width="512" height="512" x="0" y="0" viewBox="0 0 58 58" style="enable-background:new 0 0 512 512" xml:space="preserve" class=""><g><g xmlns="http://www.w3.org/2000/svg" id="Page-1" fill="none" fill-rule="evenodd"><g id="072---Search-People" fill-rule="nonzero"><circle id="Oval" cx="34.5" cy="10.5" fill="#fdd7ad" r="10.5" data-original="#fdd7ad" style="" class=""/><path id="Shape" d="m19.68 27.79-3.68 17.21h-14c-1.10320187-.0032948-1.9967052-.8967981-2-2v-7c0-4.9705627 4.02943725-9 9-9h7c1.2690629-.0030157 2.5239911.2663846 3.68.79z" fill="#f62a2a" data-original="#65ddb9" style="" class=""/><path id="Shape" d="m7 36v9h-2v-9c0-.5522847.44771525-1 1-1s1 .4477153 1 1z" fill="#c90000" data-original="#46b29d" style="" class=""/><circle id="Oval" cx="12.5" cy="15.5" fill="#fdd7ad" r="7.5" data-original="#fdd7ad" style="" class=""/><path id="Shape" d="m41 24.9999984-3 20.0000016-3 4h-17c-1.1032019-.0032948-1.9967052-.8967981-2-2v-11c-.0015929-2.9178694 1.1568209-5.716688 3.2200664-7.7799336 2.0632456-2.0632455 4.8620642-3.2216593 7.7799336-3.2200664z" fill="#c90000" data-original="#cc66a1" style="" class=""/><path id="Shape" d="m25 35v12.86c.0028076.3898684-.0684551.7767229-.21 1.14h-2.79c.5858554-.0488679 1.0278759-.5527713 1-1.14v-12.86c0-.5522847.4477153-1 1-1s1 .4477153 1 1z" fill="#7b0000" data-original="#804169" style="" class=""/><path id="Shape" d="m33.93 42.82-9.83 9.83c-1.2288336 1.231595-1.226595 3.2261664.005 4.455s3.2261664 1.226595 4.455-.005l9.88-9.88z" fill="#35495e" data-original="#35495e" style="" class=""/><path id="Shape" d="m54.19 45.19c-2.4362165 2.4394545-5.7423792 3.8101983-9.19 3.8101983s-6.7537835-1.3707438-9.19-3.8101983c-1.8034625-1.7879527-3.0355135-4.0710755-3.54-6.56-1.1359451-5.5087189 1.3996292-11.1231776 6.2834473-13.9132806 4.8838182-2.7901031 11.0080481-2.1229508 15.1765527 1.6532806.15.14.31.29.46.44 2.4394545 2.4362165 3.8101983 5.7423792 3.8101983 9.19s-1.3707438 6.7537835-3.8101983 9.19z" fill="#223a41" data-original="#2fa8cc" style="" class=""/><path id="Shape" d="m50.19 38.19c-4.8979089 4.9073626-12.7871519 5.1010717-17.92.44-1.1359451-5.5087189 1.3996292-11.1231776 6.2834473-13.9132806 4.8838182-2.7901031 11.0080481-2.1229508 15.1765527 1.6532806.8865121 4.2847693-.4441748 8.7279104-3.54 11.82z" fill="#2e3537" data-original="#67b9cc" style="" class=""/></g></g></g></svg>
